<svg width="27" height="34" viewBox="0 0 27 34" fill="none" xmlns="http://www.w3.org/2000/svg">
<path d="M8.81608 1.6665V31.6665M3.81608 1.6665H22.1494C23.0335 1.6665 23.8813 2.01769 24.5064 2.64281C25.1316 3.26794 25.4827 4.11578 25.4827 4.99984V24.9998C25.4827 25.8839 25.1316 26.7317 24.5064 27.3569C23.8813 27.982 23.0335 28.3332 22.1494 28.3332H3.81608C3.37405 28.3332 2.95013 28.1576 2.63757 27.845C2.32501 27.5325 2.14941 27.1085 2.14941 26.6665V3.33317C2.14941 2.89114 2.32501 2.46722 2.63757 2.15466C2.95013 1.8421 3.37405 1.6665 3.81608 1.6665V1.6665Z" stroke="#3F3A64" stroke-width="2.75" stroke-linecap="round" stroke-linejoin="round"/>
</svg>
